# xmcd
#
# Track frame offsets: 
#        150
#        3280
#        14296
#        28687
#        39233
#        56463
#        60868
#        67847
#        77848
#        89430
#        101348
#        119730
#
# Disc length: 1630 seconds
#
# Revision: 0
# Processed by: cddbd v1.5.1PL0 Copyright (c) Steve Scherf et al.
# Submitted via: ExactAudioCopy v0.95a5
#
DISCID=86065c0c
DTITLE=Various Artist - KTOH Volume 1 of 2
DYEAR=1945
DGENRE=Country
TTITLE0=Opening Theme - The Pacific Ramblers
TTITLE1=Avalong Town - The Pacific Ramblers
TTITLE2=Prisoner's Dream - Gladys and Ida
TTITLE3=Chinese Breakdown - Mandolin Bill
TTITLE4=Where The Silent Times Are Bending - Smitty
TTITLE5=That Silver Haired Daddy Of Mine - Ida
TTITLE6=That Good Old Mountain Music - The Pacific Ramblers
TTITLE7=Marmaduke Cornpipe - The Pacific Ramblers
TTITLE8=I Hung My Head And Cried - Mary Jane
TTITLE9=Under The Double Eagle - Mandolin Bill
TTITLE10=I'm Glad I Met You After All - William L. "Red" Halleron
TTITLE11=Closing Theme - The Pacific Ramblers
EXTD=
EXTT0=
EXTT1=
EXTT2=
EXTT3=
EXTT4=
EXTT5=
EXTT6=
EXTT7=
EXTT8=
EXTT9=
EXTT10=
EXTT11=
PLAYORDER=
